{
    "asset" : {
        "generator" : "Khronos glTF Blender I/O v1.3.48",
        "version" : "2.0"
    },
    "scene" : 0,
    "scenes" : [
        {
            "name" : "Scene",
            "nodes" : [
                0,
                1,
                2,
                3,
                4,
                5,
                6,
                7
            ]
        }
    ],
    "nodes" : [
        {
            "name" : "Light",
            "translation" : [
                0,
                23.128936767578125,
                6
            ]
        },
        {
            "name" : "Light.001",
            "rotation" : [
                1,
                0,
                0,
                -4.371138828673793e-08
            ],
            "translation" : [
                0,
                -19.96974754333496,
                6
            ]
        },
        {
            "name" : "Spot",
            "rotation" : [
                0.46590644121170044,
                0.11947180330753326,
                0.7437610626220703,
                0.464195191860199
            ],
            "translation" : [
                0,
                11,
                6
            ]
        },
        {
            "mesh" : 0,
            "name" : "Wall1",
            "scale" : [
                1,
                5,
                0.75
            ],
            "translation" : [
                29,
                5,
                0
            ]
        },
        {
            "mesh" : 1,
            "name" : "Wall2",
            "scale" : [
                1,
                5,
                0.75
            ],
            "translation" : [
                -30,
                5,
                0
            ]
        },
        {
            "mesh" : 2,
            "name" : "Wall3",
            "translation" : [
                0,
                0,
                -29
            ]
        },
        {
            "mesh" : 3,
            "name" : "Wall4",
            "scale" : [
                0.75,
                1,
                1
            ],
            "translation" : [
                0,
                0,
                30
            ]
        },
        {
            "mesh" : 4,
            "name" : "Roof",
            "scale" : [
                30,
                0.5,
                30
            ],
            "translation" : [
                0,
                10.5,
                0
            ]
        }
    ],
    "materials" : [
        {
            "doubleSided" : true,
            "emissiveFactor" : [
                0,
                0,
                0
            ],
            "name" : "Material",
            "pbrMetallicRoughness" : {
                "baseColorFactor" : [
                    1,
                    1,
                    1,
                    1
                ],
                "metallicFactor" : 0,
                "roughnessFactor" : 0
            }
        }
    ],
    "meshes" : [
        {
            "name" : "Plane",
            "primitives" : [
                {
                    "attributes" : {
                        "POSITION" : 0,
                        "NORMAL" : 1,
                        "TEXCOORD_0" : 2
                    },
                    "indices" : 3,
                    "material" : 0
                }
            ]
        },
        {
            "name" : "Plane.001",
            "primitives" : [
                {
                    "attributes" : {
                        "POSITION" : 4,
                        "NORMAL" : 5,
                        "TEXCOORD_0" : 6
                    },
                    "indices" : 3,
                    "material" : 0
                }
            ]
        },
        {
            "name" : "Plane.002",
            "primitives" : [
                {
                    "attributes" : {
                        "POSITION" : 7,
                        "NORMAL" : 8,
                        "TEXCOORD_0" : 9
                    },
                    "indices" : 10,
                    "material" : 0
                }
            ]
        },
        {
            "name" : "Plane.004",
            "primitives" : [
                {
                    "attributes" : {
                        "POSITION" : 11,
                        "NORMAL" : 12,
                        "TEXCOORD_0" : 13
                    },
                    "indices" : 3,
                    "material" : 0
                }
            ]
        },
        {
            "name" : "Cube.001",
            "primitives" : [
                {
                    "attributes" : {
                        "POSITION" : 14,
                        "NORMAL" : 15,
                        "TEXCOORD_0" : 16
                    },
                    "indices" : 17,
                    "material" : 0
                }
            ]
        }
    ],
    "accessors" : [
        {
            "bufferView" : 0,
            "componentType" : 5126,
            "count" : 24,
            "max" : [
                1,
                1,
                40
            ],
            "min" : [
                -4.371138828673793e-08,
                -1,
                -40
            ],
            "type" : "VEC3"
        },
        {
            "bufferView" : 1,
            "componentType" : 5126,
            "count" : 24,
            "type" : "VEC3"
        },
        {
            "bufferView" : 2,
            "componentType" : 5126,
            "count" : 24,
            "type" : "VEC2"
        },
        {
            "bufferView" : 3,
            "componentType" : 5123,
            "count" : 36,
            "type" : "SCALAR"
        },
        {
            "bufferView" : 4,
            "componentType" : 5126,
            "count" : 24,
            "max" : [
                1,
                1,
                40
            ],
            "min" : [
                -4.371138828673793e-08,
                -1,
                -40
            ],
            "type" : "VEC3"
        },
        {
            "bufferView" : 5,
            "componentType" : 5126,
            "count" : 24,
            "type" : "VEC3"
        },
        {
            "bufferView" : 6,
            "componentType" : 5126,
            "count" : 24,
            "type" : "VEC2"
        },
        {
            "bufferView" : 7,
            "componentType" : 5126,
            "count" : 3108,
            "max" : [
                30,
                10,
                1.7921669268616824e-06
            ],
            "min" : [
                -30,
                0,
                -1.0000017881393433
            ],
            "type" : "VEC3"
        },
        {
            "bufferView" : 8,
            "componentType" : 5126,
            "count" : 3108,
            "type" : "VEC3"
        },
        {
            "bufferView" : 9,
            "componentType" : 5126,
            "count" : 3108,
            "type" : "VEC2"
        },
        {
            "bufferView" : 10,
            "componentType" : 5123,
            "count" : 6204,
            "type" : "SCALAR"
        },
        {
            "bufferView" : 11,
            "componentType" : 5126,
            "count" : 24,
            "max" : [
                40,
                10,
                1.7921669268616824e-06
            ],
            "min" : [
                -40,
                0,
                -1.0000017881393433
            ],
            "type" : "VEC3"
        },
        {
            "bufferView" : 12,
            "componentType" : 5126,
            "count" : 24,
            "type" : "VEC3"
        },
        {
            "bufferView" : 13,
            "componentType" : 5126,
            "count" : 24,
            "type" : "VEC2"
        },
        {
            "bufferView" : 14,
            "componentType" : 5126,
            "count" : 1832,
            "max" : [
                1,
                1,
                1
            ],
            "min" : [
                -1,
                -1,
                -1
            ],
            "type" : "VEC3"
        },
        {
            "bufferView" : 15,
            "componentType" : 5126,
            "count" : 1832,
            "type" : "VEC3"
        },
        {
            "bufferView" : 16,
            "componentType" : 5126,
            "count" : 1832,
            "type" : "VEC2"
        },
        {
            "bufferView" : 17,
            "componentType" : 5123,
            "count" : 3648,
            "type" : "SCALAR"
        }
    ],
    "bufferViews" : [
        {
            "buffer" : 0,
            "byteLength" : 288,
            "byteOffset" : 0
        },
        {
            "buffer" : 0,
            "byteLength" : 288,
            "byteOffset" : 288
        },
        {
            "buffer" : 0,
            "byteLength" : 192,
            "byteOffset" : 576
        },
        {
            "buffer" : 0,
            "byteLength" : 72,
            "byteOffset" : 768
        },
        {
            "buffer" : 0,
            "byteLength" : 288,
            "byteOffset" : 840
        },
        {
            "buffer" : 0,
            "byteLength" : 288,
            "byteOffset" : 1128
        },
        {
            "buffer" : 0,
            "byteLength" : 192,
            "byteOffset" : 1416
        },
        {
            "buffer" : 0,
            "byteLength" : 37296,
            "byteOffset" : 1608
        },
        {
            "buffer" : 0,
            "byteLength" : 37296,
            "byteOffset" : 38904
        },
        {
            "buffer" : 0,
            "byteLength" : 24864,
            "byteOffset" : 76200
        },
        {
            "buffer" : 0,
            "byteLength" : 12408,
            "byteOffset" : 101064
        },
        {
            "buffer" : 0,
            "byteLength" : 288,
            "byteOffset" : 113472
        },
        {
            "buffer" : 0,
            "byteLength" : 288,
            "byteOffset" : 113760
        },
        {
            "buffer" : 0,
            "byteLength" : 192,
            "byteOffset" : 114048
        },
        {
            "buffer" : 0,
            "byteLength" : 21984,
            "byteOffset" : 114240
        },
        {
            "buffer" : 0,
            "byteLength" : 21984,
            "byteOffset" : 136224
        },
        {
            "buffer" : 0,
            "byteLength" : 14656,
            "byteOffset" : 158208
        },
        {
            "buffer" : 0,
            "byteLength" : 7296,
            "byteOffset" : 172864
        }
    ],
    "buffers" : [
        {
            "byteLength" : 180160,
            "uri" : "data:application/octet-stream;base64,"
        }
    ]
}
